<svg width="210" height="210" viewBox="0 0 210 210" fill="none" xmlns="http://www.w3.org/2000/svg">
<rect width="210" height="210" fill="#F5F5F5"/>
<circle cx="105" cy="105" r="95" stroke="black" stroke-width="20"/>
<g filter="url(#filter0_d_0_1)">
<mask id="path-2-inside-1_0_1" fill="white">
<path d="M122.32 173C114.622 186.333 95.3775 186.333 87.6795 172.999L37.45 85.9994C29.752 72.6661 39.3745 55.9995 54.7705 55.9995L155.23 55.9995C170.626 55.9995 180.248 72.6661 172.55 85.9995L122.32 173Z"/>
</mask>
<path d="M155.23 55.9995V75.9995V55.9995ZM87.6795 172.999L70.359 182.999L87.6795 172.999ZM122.32 173L139.641 183L122.32 173ZM105 162.999L54.7705 75.9994L20.1295 95.9994L70.359 182.999L105 162.999ZM54.7705 75.9995L155.23 75.9995V35.9995L54.7705 35.9995L54.7705 75.9995ZM155.229 75.9995L105 163L139.641 183L189.87 95.9995L155.229 75.9995ZM155.23 75.9995C155.259 75.9995 155.282 76.0005 155.298 76.0016C155.314 76.0027 155.324 76.0039 155.33 76.0046C155.335 76.0054 155.336 76.0057 155.334 76.0053C155.332 76.0048 155.327 76.0037 155.32 76.0017C155.313 75.9997 155.304 75.9971 155.295 75.9937C155.285 75.9903 155.275 75.9864 155.265 75.9821C155.245 75.9733 155.227 75.9638 155.212 75.9549C155.182 75.937 155.175 75.9271 155.183 75.9356C155.187 75.9398 155.194 75.9476 155.203 75.9591C155.212 75.9706 155.221 75.9842 155.229 75.9995C155.238 76.0147 155.246 76.0294 155.251 76.0428C155.257 76.0561 155.26 76.066 155.262 76.0717C155.265 76.0831 155.26 76.0715 155.259 76.0368C155.259 76.0196 155.26 75.9992 155.262 75.9771C155.264 75.9662 155.265 75.9557 155.267 75.9458C155.269 75.9359 155.271 75.9272 155.273 75.9201C155.275 75.9129 155.276 75.9082 155.277 75.906C155.278 75.9038 155.277 75.9051 155.275 75.91C155.273 75.915 155.269 75.9247 155.262 75.9391C155.255 75.9534 155.244 75.9736 155.229 75.9995L189.87 95.9995C205.266 69.3329 186.022 35.9995 155.23 35.9995V75.9995ZM54.7705 75.9994C54.7556 75.9736 54.7451 75.9534 54.738 75.939C54.731 75.9246 54.7269 75.915 54.7248 75.91C54.7228 75.905 54.7225 75.9037 54.7232 75.906C54.7239 75.9082 54.7254 75.9129 54.7272 75.9201C54.7291 75.9272 54.731 75.9359 54.7329 75.9458C54.7347 75.9557 54.7363 75.9662 54.7375 75.9771C54.7401 75.9992 54.7409 76.0196 54.7406 76.0368C54.74 76.0715 54.7352 76.0831 54.7384 76.0717C54.74 76.066 54.7433 76.0561 54.7489 76.0428C54.7545 76.0295 54.7617 76.0147 54.7705 75.9995C54.7793 75.9843 54.7885 75.9706 54.7972 75.9591C54.8059 75.9476 54.8129 75.9398 54.817 75.9356C54.8253 75.9271 54.8176 75.9371 54.7879 75.9549C54.7731 75.9638 54.7551 75.9733 54.7347 75.9821C54.7246 75.9865 54.7147 75.9903 54.7052 75.9937C54.6957 75.9971 54.6872 75.9997 54.6801 76.0017C54.673 76.0037 54.6682 76.0048 54.6659 76.0053C54.6636 76.0057 54.6649 76.0054 54.6702 76.0046C54.6756 76.0039 54.686 76.0027 54.702 76.0016C54.718 76.0005 54.7407 75.9995 54.7705 75.9995V35.9995C23.9786 35.9995 4.73347 69.3327 20.1295 95.9994L54.7705 75.9994ZM70.359 182.999C85.755 209.666 124.245 209.666 139.641 183L105 163C104.985 163.025 104.973 163.045 104.964 163.058C104.955 163.071 104.949 163.08 104.945 163.084C104.942 163.088 104.941 163.089 104.943 163.087C104.944 163.086 104.948 163.082 104.953 163.077C104.958 163.072 104.965 163.066 104.972 163.059C104.98 163.052 104.988 163.046 104.997 163.039C105.015 163.026 105.032 163.015 105.047 163.007C105.078 162.99 105.09 162.988 105.079 162.991C105.073 162.993 105.063 162.995 105.048 162.997C105.034 162.998 105.018 162.999 105 162.999C104.982 162.999 104.966 162.998 104.952 162.997C104.937 162.995 104.927 162.993 104.921 162.991C104.91 162.988 104.922 162.99 104.953 163.007C104.968 163.015 104.985 163.026 105.003 163.039C105.012 163.046 105.02 163.052 105.028 163.059C105.035 163.065 105.042 163.072 105.047 163.077C105.052 163.082 105.056 163.085 105.057 163.087C105.059 163.089 105.058 163.088 105.055 163.084C105.051 163.08 105.045 163.071 105.036 163.058C105.027 163.045 105.015 163.025 105 162.999L70.359 182.999Z" fill="black" mask="url(#path-2-inside-1_0_1)"/>
</g>
<line x1="86" y1="60.0119" x2="86" y2="18" stroke="black" stroke-width="20"/>
<line x1="127.527" y1="139.416" x2="162.522" y2="179.419" stroke="black" stroke-width="20"/>
<line x1="47.4736" y1="179.419" x2="82.4692" y2="139.416" stroke="black" stroke-width="20"/>
<line x1="127" y1="62.0119" x2="127" y2="20" stroke="black" stroke-width="20"/>
<defs>
<filter id="filter0_d_0_1" x="30.7407" y="55.9995" width="148.519" height="135" filterUnits="userSpaceOnUse" color-interpolation-filters="sRGB">
<feFlood flood-opacity="0" result="BackgroundImageFix"/>
<feColorMatrix in="SourceAlpha" type="matrix" values="0 0 0 0 0 0 0 0 0 0 0 0 0 0 0 0 0 0 127 0" result="hardAlpha"/>
<feOffset dy="4"/>
<feGaussianBlur stdDeviation="2"/>
<feComposite in2="hardAlpha" operator="out"/>
<feColorMatrix type="matrix" values="0 0 0 0 0 0 0 0 0 0 0 0 0 0 0 0 0 0 0.25 0"/>
<feBlend mode="normal" in2="BackgroundImageFix" result="effect1_dropShadow_0_1"/>
<feBlend mode="normal" in="SourceGraphic" in2="effect1_dropShadow_0_1" result="shape"/>
</filter>
</defs>
</svg>
