<svg width="210" height="210" viewBox="0 0 210 210" fill="none" xmlns="http://www.w3.org/2000/svg">
<circle cx="105" cy="105" r="103" stroke="white" stroke-width="4"/>
<g filter="url(#filter0_d_4_2)">
<mask id="path-2-inside-1_4_2" fill="white">
<path d="M122.32 173C114.622 186.333 95.3775 186.333 87.6795 172.999L37.45 85.9995C29.752 72.6661 39.3745 55.9995 54.7705 55.9995L155.23 55.9995C170.626 55.9995 180.248 72.6662 172.55 85.9995L122.32 173Z"/>
</mask>
<path d="M122.32 173L118.856 171L118.856 171L122.32 173ZM87.6795 172.999L84.2154 174.999L84.2154 174.999L87.6795 172.999ZM37.45 85.9995L40.9141 83.9995L40.9141 83.9994L37.45 85.9995ZM155.23 55.9995V59.9995V55.9995ZM172.55 85.9995L169.086 83.9995L169.086 83.9995L172.55 85.9995ZM118.856 171C112.698 181.666 97.302 181.666 91.1436 170.999L84.2154 174.999C93.453 190.999 116.547 191 125.785 175L118.856 171ZM91.1436 170.999L40.9141 83.9995L33.9859 87.9995L84.2154 174.999L91.1436 170.999ZM40.9141 83.9994C34.7557 73.3328 42.4537 59.9995 54.7705 59.9995V51.9995C36.2953 51.9995 24.7483 71.9994 33.9859 87.9995L40.9141 83.9994ZM54.7705 59.9995L155.23 59.9995V51.9995L54.7705 51.9995V59.9995ZM155.23 59.9995C167.546 59.9995 175.244 73.3328 169.086 83.9995L176.014 87.9995C185.252 71.9995 173.705 51.9995 155.23 51.9995V59.9995ZM169.086 83.9995L118.856 171L125.785 175L176.014 87.9995L169.086 83.9995Z" fill="white" mask="url(#path-2-inside-1_4_2)"/>
</g>
<line x1="82" y1="56" x2="82" y2="5" stroke="white" stroke-width="4"/>
<line x1="30.5858" y1="175.586" x2="68.5858" y2="137.586" stroke="white" stroke-width="4"/>
<line x1="180.604" y1="176.432" x2="140.604" y2="137.432" stroke="white" stroke-width="4"/>
<line x1="128" y1="58" x2="128" y2="5" stroke="white" stroke-width="4"/>
<defs>
<filter id="filter0_d_4_2" x="30.7407" y="55.9995" width="148.519" height="135" filterUnits="userSpaceOnUse" color-interpolation-filters="sRGB">
<feFlood flood-opacity="0" result="BackgroundImageFix"/>
<feColorMatrix in="SourceAlpha" type="matrix" values="0 0 0 0 0 0 0 0 0 0 0 0 0 0 0 0 0 0 127 0" result="hardAlpha"/>
<feOffset dy="4"/>
<feGaussianBlur stdDeviation="2"/>
<feComposite in2="hardAlpha" operator="out"/>
<feColorMatrix type="matrix" values="0 0 0 0 0 0 0 0 0 0 0 0 0 0 0 0 0 0 0.25 0"/>
<feBlend mode="normal" in2="BackgroundImageFix" result="effect1_dropShadow_4_2"/>
<feBlend mode="normal" in="SourceGraphic" in2="effect1_dropShadow_4_2" result="shape"/>
</filter>
</defs>
</svg>
